:SAMPLES-PER-SECOND 30
:FULLY-SPECIFIED
:DEGREES
443
root  33.2796 34.0887 14.0673 -171.059 39.0228 -176.292
LeftUpLeg  -8.81701 12.9744 10.3266
LeftLeg  15.6769 24.8455 5.09976
LeftFoot  5.04425 -0.112957 2.29205
LeftToes  -22.9522 2.48695e-006 -1.03773e-007
Spine  0.664217 -0.368978 1.55007
Spine1  0.838915 -0.843678 3.13602
RightShoulder  0.177567 8.49423 9.63578
RightArm  -26.2652 -15.6666 70.6944
RightForeArm  34.8359 12.9226 2.3114
RightHand  0.202361 -4.65833 -4.59558
LeftShoulder1  0.0987614 -2.5049 -11.2075
LeftArm  -11.6465 12.8653 -69.7891
LeftForeArm  32.8115 -13.5909 -2.43603
LeftHand  0.105224 3.64711 3.27475
HEad  -13.926 -26.7668 6.1176
RightUpLeg  -12.675 -5.79913 2.78161
RightLeg  17.1224 26.9627 6.19831
RightFoot  -1.12066 -0.00933131 -0.550743
RightToes  -22.8462 -0.101678 -0.202326
444
root  33.2877 34.0874 14.0581 -170.995 39.0257 -176.269
LeftUpLeg  -8.70432 12.9166 10.3404
LeftLeg  15.3643 24.9275 4.97903
LeftFoot  5.11646 -0.11552 2.33192
LeftToes  -22.8072 2.48695e-006 -1.03773e-007
Spine  0.656677 -0.341562 1.53412
Spine1  0.820704 -0.792902 3.11039
RightShoulder  0.178 8.46725 9.62453
RightArm  -26.1512 -15.6415 70.5474
RightForeArm  34.1574 12.9663 2.32005
RightHand  0.213118 -4.91303 -4.5885
LeftShoulder1  0.0987614 -2.49089 -11.2072
LeftArm  -11.8521 12.6935 -69.5911
LeftForeArm  32.9177 -13.5555 -2.42936
LeftHand  0.106274 3.57942 3.31265
HEad  -14.1514 -26.8214 6.08625
RightUpLeg  -12.6992 -5.73467 2.8018
RightLeg  17.1036 26.9018 6.1765
RightFoot  -1.13421 -0.00969302 -0.556309
RightToes  -22.8307 -0.101678 -0.202326
445
root  33.2912 34.0862 14.0545 -170.964 39.0051 -176.26
LeftUpLeg  -8.64412 12.9706 10.3451
LeftLeg  15.1652 24.8976 4.88679
LeftFoot  5.18899 -0.117354 2.36044
LeftToes  -22.9211 2.48695e-006 -1.03773e-007
Spine  0.661801 -0.324088 1.51975
Spine1  0.82771 -0.760815 3.0848
RightShoulder  0.178504 8.43546 9.61376
RightArm  -26.3426 -15.5511 70.4872
RightForeArm  33.8066 12.8955 2.30723
RightHand  0.226019 -5.10194 -4.69377
LeftShoulder1  0.0987614 -2.49476 -11.2039
LeftArm  -11.9787 12.5467 -69.4634
LeftForeArm  32.934 -13.5535 -2.42898
LeftHand  0.106393 3.54317 3.29534
HEad  -14.3158 -26.8711 6.10773
RightUpLeg  -12.7321 -5.63471 2.80813
RightLeg  17.1342 26.7833 6.16584
RightFoot  -1.16674 -0.00964859 -0.570382
RightToes  -22.8156 -0.101678 -0.202326
446
root  33.2944 34.0835 14.0516 -170.925 38.9734 -176.255
LeftUpLeg  -8.58736 12.9399 10.3421
LeftLeg  14.9475 24.9204 4.79619
LeftFoot  5.29857 -0.120657 2.41183
LeftToes  -23.1474 2.48695e-006 -1.03773e-007
Spine  0.674149 -0.302521 1.4958
Spine1  0.848335 -0.720626 3.03853
RightShoulder  0.179076 8.45697 9.62821
RightArm  -26.8429 -15.3939 70.4286
RightForeArm  33.6868 12.6863 2.26864
RightHand  0.237627 -5.17412 -4.87929
LeftShoulder1  0.0987614 -2.48979 -11.2351
LeftArm  -12.1851 12.3399 -69.2961
LeftForeArm  32.9742 -13.5693 -2.43189
LeftHand  0.106713 3.54269 3.32248
HEad  -14.5613 -26.8929 6.14889
RightUpLeg  -12.8032 -5.50945 2.81028
RightLeg  17.2186 26.6473 6.17653
RightFoot  -1.2036 -0.0101227 -0.586494
RightToes  -22.9613 -0.101678 -0.202326
447
root  33.2974 34.0817 14.0508 -170.915 38.9133 -176.262
LeftUpLeg  -8.58333 13.0083 10.3444
LeftLeg  14.8682 24.8129 4.74258
LeftFoot  5.31231 -0.120178 2.40438
LeftToes  -23.1854 2.48695e-006 -1.03773e-007
Spine  0.686361 -0.29451 1.47875
Spine1  0.867958 -0.707836 3.00763
RightShoulder  0.179687 8.50499 9.58151
RightArm  -27.0014 -15.314 70.4226
RightForeArm  33.4605 12.6158 2.25579
RightHand  0.249068 -5.34309 -4.95787
LeftShoulder1  0.0987614 -2.505 -11.2545
LeftArm  -12.2997 12.2145 -69.191
LeftForeArm  32.9329 -13.6279 -2.44282
LeftHand  0.106705 3.51437 3.30056
HEad  -14.758 -26.836 6.06084
RightUpLeg  -12.8475 -5.38429 2.80964
RightLeg  17.2944 26.4554 6.17079
RightFoot  -1.27673 -0.00919032 -0.618884
RightToes  -22.8167 -0.101678 -0.202326
448
root  33.3007 34.0808 14.0474 -170.901 38.8532 -176.271
LeftUpLeg  -8.59176 13.0032 10.342
LeftLeg  14.8147 24.7765 4.71297
LeftFoot  5.33962 -0.120664 2.41193
LeftToes  -23.2519 2.48695e-006 -1.03773e-007
Spine  0.704956 -0.274226 1.46417
Spine1  0.902326 -0.669957 2.98062
RightShoulder  0.180652 8.54632 9.53933
RightArm  -27.184 -15.2274 70.4525
RightForeArm  33.5577 12.5612 2.24563
RightHand  0.246157 -5.30474 -4.93371
LeftShoulder1  0.0987614 -2.54303 -11.285
LeftArm  -12.3975 12.0872 -69.1303
LeftForeArm  32.9015 -13.6789 -2.45234
LeftHand  0.106277 3.49893 3.25185
HEad  -15.0307 -26.7521 6.02655
RightUpLeg  -12.8523 -5.34166 2.80677
RightLeg  17.2732 26.3601 6.14042
RightFoot  -1.28704 -0.00996683 -0.621713
RightToes  -22.9019 -0.101678 -0.202326
449
root  33.3065 34.0803 14.0422 -170.888 38.8085 -176.278
LeftUpLeg  -8.61543 12.9846 10.3399
LeftLeg  14.8274 24.7522 4.71413
LeftFoot  5.33763 -0.120402 2.40786
LeftToes  -23.3009 2.48695e-006 -1.03773e-007
Spine  0.722987 -0.243943 1.45251
Spine1  0.936608 -0.611775 2.95961
RightShoulder  0.181314 8.57577 9.4939
RightArm  -27.274 -15.1852 70.5188
RightForeArm  33.6946 12.603 2.25324
RightHand  0.237927 -5.2189 -4.84086
LeftShoulder1  0.0987614 -2.58422 -11.3096
LeftArm  -12.4305 11.9835 -69.1395
LeftForeArm  32.8814 -13.7028 -2.45681
LeftHand  0.106122 3.51237 3.2485
HEad  -15.0829 -26.64 5.98768
RightUpLeg  -12.8231 -5.38822 2.81052
RightLeg  17.1978 26.3562 6.10457
RightFoot  -1.27607 -0.0112225 -0.61518
RightToes  -22.9711 -0.101678 -0.202326
450
root  33.3142 34.0794 14.0342 -170.875 38.8025 -176.277
LeftUpLeg  -8.64322 12.957 10.3395
LeftLeg  14.9089 24.7819 4.75466
LeftFoot  5.27769 -0.11884 2.38355
LeftToes  -23.1363 2.48695e-006 -1.03773e-007
Spine  0.739138 -0.201172 1.44121
Spine1  0.968772 -0.52717 2.93773
RightShoulder  0.181916 8.63636 9.46661
RightArm  -27.2593 -15.17 70.5853
RightForeArm  33.7362 12.6855 2.26844
RightHand  0.229627 -5.11635 -4.76004
LeftShoulder1  0.0987614 -2.61099 -11.3464
LeftArm  -12.428 11.9108 -69.192
LeftForeArm  32.8442 -13.7143 -2.45897
LeftHand  0.107453 3.43765 3.30836
HEad  -14.8873 -26.5096 6.04006
RightUpLeg  -12.787 -5.40884 2.81488
RightLeg  17.1269 26.378 6.07633
RightFoot  -1.26345 -0.0123084 -0.610462
RightToes  -22.9447 -0.101678 -0.202326
451
root  33.3264 34.0784 14.0227 -170.867 38.8054 -176.269
LeftUpLeg  -8.67388 12.8124 10.3509
LeftLeg  15.0592 24.912 4.84327
LeftFoot  5.23146 -0.118464 2.37771
LeftToes  -23.2241 2.48695e-006 -1.03773e-007
Spine  0.752948 -0.144174 1.42929
Spine1  0.998008 -0.410931 2.91015
RightShoulder  0.182512 8.66525 9.47889
RightArm  -27.1746 -15.1413 70.6691
RightForeArm  33.8035 12.7914 2.28798
RightHand  0.219365 -4.98143 -4.66365
LeftShoulder1  0.0987614 -2.58461 -11.411
LeftArm  -12.3529 11.9142 -69.3056
LeftForeArm  32.7876 -13.835 -2.48153
LeftHand  0.105924 3.55547 3.26422
HEad  -14.7116 -26.4687 5.96364
RightUpLeg  -12.7496 -5.43959 2.82104
RightLeg  17.1131 26.4104 6.0768
RightFoot  -1.28103 -0.0124588 -0.620553
RightToes  -22.924 -0.101678 -0.202326
452
root  33.3373 34.0774 14.0124 -170.878 38.8165 -176.257
LeftUpLeg  -8.70423 13.011 10.3705
LeftLeg  15.2085 24.7421 4.87705
LeftFoot  5.10805 -0.113614 2.30227
LeftToes  -23.0731 2.48695e-006 -1.03773e-007
Spine  0.763297 -0.100801 1.4278
Spine1  1.02253 -0.31783 2.89836
RightShoulder  0.18313 8.60542 9.5182
RightArm  -27.0441 -15.0602 70.7436
RightForeArm  33.7651 12.8508 2.299
RightHand  0.220436 -5.01238 -4.65701
LeftShoulder1  0.0987614 -2.52583 -11.4172
LeftArm  -12.2146 11.97 -69.479
LeftForeArm  32.6531 -13.9095 -2.49552
LeftHand  0.106161 3.54776 3.27882
HEad  -14.6137 -26.505 5.92714
RightUpLeg  -12.7088 -5.45359 2.83186
RightLeg  17.1188 26.4193 6.0768
RightFoot  -1.30423 -0.0125537 -0.632879
RightToes  -23.0152 -0.101678 -0.202326
453
root  33.3531 34.0762 14.0013 -170.887 38.8009 -176.255
LeftUpLeg  -8.71027 12.9766 10.3899
LeftLeg  15.3196 24.737 4.92418
LeftFoot  5.03118 -0.111378 2.26749
LeftToes  -22.8923 2.48695e-006 -1.03773e-007
Spine  0.765168 -0.0749347 1.4392
Spine1  1.03168 -0.256792 2.90813
RightShoulder  0.183694 8.56224 9.55059
RightArm  -26.9441 -15.0141 70.8043
RightForeArm  33.7091 12.9139 2.31072
RightHand  0.220768 -5.00785 -4.63009
LeftShoulder1  0.0987614 -2.46937 -11.3594
LeftArm  -12.0506 12.1513 -69.7294
LeftForeArm  32.4709 -14.0485 -2.52161
LeftHand  0.105435 3.56024 3.22517
HEad  -14.5942 -26.5679 5.84036
RightUpLeg  -12.6518 -5.47833 2.83923
RightLeg  17.0893 26.4444 6.07265
RightFoot  -1.33207 -0.0126417 -0.647782
RightToes  -22.8866 -0.101678 -0.202326
454
root  33.3716 34.0747 13.9886 -170.889 38.7741 -176.256
LeftUpLeg  -8.69534 12.9884 10.4117
LeftLeg  15.3597 24.6978 4.93426
LeftFoot  4.98416 -0.109768 2.24245
LeftToes  -22.8145 2.48695e-006 -1.03773e-007
Spine  0.760907 -0.0576085 1.45711
Spine1  1.03257 -0.213296 2.93174
RightShoulder  0.184224 8.54194 9.60439
RightArm  -26.8445 -15.0163 70.8058
RightForeArm  33.7076 12.9907 2.32493
RightHand  0.220902 -4.94295 -4.56321
LeftShoulder1  0.0987614 -2.44981 -11.319
LeftArm  -11.8905 12.3673 -69.9775
LeftForeArm  32.3291 -14.1255 -2.53612
LeftHand  0.104887 3.56726 3.18245
HEad  -14.4628 -26.5223 5.81
RightUpLeg  -12.601 -5.53369 2.84966
RightLeg  17.07 26.4696 6.06929
RightFoot  -1.35969 -0.0129642 -0.662609
RightToes  -22.9485 -0.101678 -0.202326
455
root  33.3936 34.0717 13.977 -170.88 38.7377 -176.243
LeftUpLeg  -8.68705 12.9863 10.4481
LeftLeg  15.405 24.6676 4.94816
LeftFoot  4.9618 -0.108928 2.22939
LeftToes  -22.8743 2.48695e-006 -1.03773e-007
Spine  0.758536 -0.0480278 1.47997
Spine1  1.02773 -0.186839 2.96699
RightShoulder  0.184707 8.52321 9.63505
RightArm  -26.6586 -15.0387 70.7821
RightForeArm  33.5571 13.0678 2.33933
RightHand  0.219747 -4.95446 -4.48751
LeftShoulder1  0.0987614 -2.46416 -11.2712
LeftArm  -11.6707 12.605 -70.2146
LeftForeArm  32.2041 -14.1718 -2.54486
LeftHand  0.103445 3.61236 3.08963
HEad  -14.5014 -26.4738 5.7715
RightUpLeg  -12.5622 -5.56483 2.87435
RightLeg  17.0789 26.4664 6.07277
RightFoot  -1.40573 -0.0130424 -0.685897
RightToes  -22.8983 -0.101678 -0.202326
